<svg xmlns="http://www.w3.org/2000/svg" xml:space="preserve" viewBox="0 0 50 50">
  <path fill="#2e3191" d="M38.9 41c0 .6-.4 1-1 1h-27c-.6 0-1-.4-1-1s.4-1 1-1h27c.6 0 1 .4 1 1zm7-31c0 4.4-3.6 8-8 8s-8-3.6-8-8 3.6-8 8-8 8 3.6 8 8zm-4 0c0-.6-.4-1-1-1h-2V7c0-.6-.4-1-1-1s-1 .4-1 1v2h-2c-.6 0-1 .4-1 1s.4 1 1 1h2v2c0 .6.4 1 1 1s1-.4 1-1v-2h2c.6 0 1-.4 1-1zm-2 9.8c.7-.1 1.4-.4 2-.6V45c0 .6-.4 1-1 1h-30c-2.8 0-5-2.2-5-5V11c0-2.8 2.2-5 5-5h17.8c-.5 1.2-.8 2.6-.8 4 0 1 .2 2.1.5 3H16.9c-.6 0-1 .4-1 1s.4 1 1 1h12.4c.4.7.9 1.4 1.5 2H17.9c-.6 0-1 .4-1 1s.4 1 1 1h13c.6 0 1-.4 1-1 1.7 1.3 3.8 2 6 2 .3 0 .7 0 1-.1V37c0 .6-.4 1-1 1h-27c-1.7 0-3 1.3-3 3s1.3 3 3 3h29V19.8zM7.9 37c.6-.4 1.3-.7 2-.9V8.2c-1.2.4-2 1.5-2 2.8v26z"/>
</svg>
