<svg xmlns="http://www.w3.org/2000/svg" xmlns:xlink="http://www.w3.org/1999/xlink" viewBox="0 0 1024 1024">
  <defs>
    <linearGradient xlink:href="#a" id="b" x1="-15.757" x2="-31.981" y1="50.285" y2="11.045" gradientTransform="translate(-798.304 -1382.703)" gradientUnits="userSpaceOnUse"/>
    <linearGradient id="a">
      <stop offset="0"/>
      <stop offset="1" stop-opacity="0"/>
    </linearGradient>
    <clipPath id="c" clipPathUnits="userSpaceOnUse">
      <path fill="#ffc938" d="M23.705 29.953C37.37 36.81 24.849 52.391 5.87 47.116c-10.137-2.817-.983 1.734-.983 1.734s4.735 4.253 13.356 4.173c8.622-.08 19.263-4.173 19.263-4.173L32.3 29.937Z"/>
    </clipPath>
  </defs>
  <circle cx="512" cy="512" r="512" fill="#d4e3ff" fill-rule="evenodd" paint-order="fill markers stroke" style="marker:none"/>
  <path fill="#76abff" fill-rule="evenodd" d="M703.65 138.7a30.986 30.986 0 0 0-30.7 15.3l-65.7 113.85-23.15 40.05v.051l-15.5 26.8.3.154-6.45 11.2-6.45 11.2-83.8-48.4c-3.72-2.148-7.65-3.448-11.65-3.95-11.999-1.505-24.274 4.131-30.7 15.3l-47.5 82.5-.1-.051C314.793 514.455 237.604 562.442 161.9 620.052l88.85 331.551A512 512 0 0 0 512 1024a512 512 0 0 0 416-214.249l-169.1-630.9c-1.942-7.908-6.906-15.038-14.55-19.451l-29-16.75a31.121 31.121 0 0 0-11.7-3.95z"/>
  <g fill="url(#b)" transform="rotate(30 400.673 853.657) scale(15.77745)">
    <rect width="6.056" height="15.194" x="18.169" y="5.106" fill="#be8511" fill-rule="evenodd" rx="1.966" ry="1.966"/>
    <rect width="22.206" height="6.587" x="10.094" y="21.938" fill="#be8511" fill-rule="evenodd" rx="1.966" ry="1.966"/>
    <path fill="#fff9b5" fill-rule="evenodd" d="M10.094 29.938c-.162 8.271-2.878 13.35-5.207 18.912a43.624 43.624 0 0 0 8.658 2.18l2.818-9.968.201 10.3c7.092.544 14.048-.587 20.942-2.512-3.914-5.634-4.946-12.154-5.205-18.913Z"/>
    <path fill="#978808" fill-opacity=".117" fill-rule="evenodd" d="M10.094 29.938c-.162 8.271-2.878 13.35-5.207 18.912a43.624 43.624 0 0 0 8.658 2.18l2.818-9.968.201 10.3c7.092.544 14.048-.587 20.942-2.512-3.914-5.634-4.946-12.154-5.205-18.913Z" clip-path="url(#c)"/>
    <path fill="#fff" d="M21.387 6.055s-1.631-.529-2.228.05c-.541.523-.025 4.087-.025 4.087.531-1.585-.565-4.11 2.253-4.137z"/>
    <path fill="#be8511" fill-rule="evenodd" d="M18.169 15.404h6.056V20.3h-6.056z"/>
  </g>
  <circle cx="512" cy="512" r="486.4" fill="none" stroke="#76abff" stroke-width="51.2" paint-order="fill markers stroke" style="marker:none"/>
</svg>
