<svg xmlns="http://www.w3.org/2000/svg" xml:space="preserve" viewBox="0 0 100 100">
  <path d="m24 84.8-4.8-62.7h61.3l-4.8 62.7c-.2 2.9-2.7 5.2-5.6 5.2H29.6c-2.9 0-5.4-2.3-5.6-5.2zm17.4-48.6c0-1.6-1.3-2.8-2.8-2.8s-2.8 1.3-2.8 2.8v34c0 1.6 1.3 2.8 2.8 2.8s2.8-1.3 2.8-2.8v-34zm11.3 0c0-1.6-1.3-2.8-2.8-2.8S47 34.7 47 36.2v34c0 1.6 1.3 2.8 2.8 2.8s2.8-1.3 2.8-2.8v-34zm11.3 0c0-1.6-1.3-2.8-2.8-2.8s-2.8 1.3-2.8 2.8v34c0 1.6 1.3 2.8 2.8 2.8s2.8-1.3 2.8-2.8v-34zM37.7 10h24.6v6.2h22.6v4.1H15.1v-4.1h22.6V10zm4.1 6.2h16.4v-2.1H41.8v2.1z" class="st0"/>
</svg>
