<svg xmlns="http://www.w3.org/2000/svg" xml:space="preserve" viewBox="0 0 64 64">
  <path fill="#ed7899" d="m50.9 5.9 6.8 6.8c1.6 1.6 1.6 4.1 0 5.7L54 22 41.5 9.5l3.7-3.7c1.6-1.5 4.1-1.5 5.7.1z"/>
  <path fill="#c2cde7" d="m39.1 8.9 16 16-6.6 6.6-16-16 6.6-6.6z"/>
  <path fill="#f9e3ae" d="m34.1 16.9 13 13-28.6 28.6-13-13 28.6-28.6z"/>
  <path fill="#f6d397" d="m42.6 25.4 4.5 4.5-28.6 28.6L14 54l28.6-28.6z"/>
  <path d="m5 57 1-11 7 1 1 3 2.9 1.5L19 59H7l-2-2z" class="st4"/>
  <path d="m34.1 16.9 4.5 4.5L10 50l-4.5-4.5 28.6-28.6z" class="st4"/>
  <path d="M60.6 15.9c0-1.1-.4-2.1-1.2-2.8l-8.5-8.5c-1.6-1.5-4.1-1.5-5.7 0L41 8.8c-.8-.8-2-.8-2.8 0l-5.7 5.7c-.8.8-.8 2 0 2.8l-27 27c-.5.5-.8 1.2-.9 1.9L4 54.7l-.7 4.9c-.1.5.3 1.1.9 1.1h.2l4.9-.7 8.5-.6c.7-.1 1.4-.4 1.9-.9l27.1-27c.8.7 2 .7 2.8 0l5.7-5.7c.8-.8.8-2 0-2.8l4.2-4.2c.7-.8 1.1-1.8 1.1-2.9zm-48.7 32 .6 2.9c.1.4.4.7.8.8l2.9.6 1.1 5.3-7.7.5L6 54.4l.6-7.6 5.3 1.1zm7.1 8.4-1-4.8L34.7 35c.4-.4.3-1.1-.1-1.4-.4-.3-.9-.3-1.3 0L16.7 50.2l-2.4-.5-.5-2.4 13.8-13.8c.4-.4.3-1.1-.1-1.4-.4-.3-.9-.3-1.3 0L12.4 45.9 7.8 45 34 18.8l11.3 11.3L19 56.3zm33.3-30.5c-.4-.4-1-.4-1.4 0l-1.4 1.4c-.4.4-.4 1 0 1.4L48.1 30 34 15.9l1.4-1.4c.4.4 1 .4 1.4 0l1.4-1.4c.4-.4.4-1 0-1.4l1.4-1.4.7.7L53 23.7l.7.7-1.4 1.4zm5.7-8.5-4.2 4.2-11.4-11.3L46.7 6c.8-.8 2-.8 2.8 0l8.5 8.5c.8.8.8 2 0 2.8z"/>
  <path fill="#8d6c9f" d="m40.3 15.2-1.4 1.4c-.4.3-.5 1-.2 1.4.3.4 1 .5 1.4.2.1 0 .1-.1.2-.2l1.4-1.4c.4-.4.3-1.1-.1-1.4-.4-.3-.9-.3-1.3 0zm3.6 3.5-1.4 1.4c-.4.4-.5 1-.1 1.4s1 .5 1.4.1l.1-.1 1.4-1.4c.4-.4.3-1.1-.1-1.4-.4-.3-1-.3-1.3 0zm3.5 3.6L46 23.7c-.4.4-.5 1-.1 1.4s1 .5 1.4.1l.1-.1 1.4-1.4c.4-.4.3-1.1-.1-1.4-.4-.4-.9-.4-1.3 0zm-15.6 4.2L29 29.3c-.4.4-.5 1-.1 1.4.4.4 1 .5 1.4.1l.1-.1 2.8-2.8c.4-.4.3-1.1-.1-1.4-.3-.3-.9-.3-1.3 0z"/>
</svg>
