<svg xmlns="http://www.w3.org/2000/svg" xml:space="preserve" viewBox="0 0 100 100">
  <path d="M89.9 17.3h-46c-1.7-5.8-7-9.8-13-9.9-6 0-11.3 4.1-12.9 9.9h-7.9c-2 0-3.6 1.6-3.6 3.6s1.6 3.6 3.6 3.6H18c1.6 5.8 6.9 9.8 12.9 9.9 6 0 11.3-4.1 13-9.9h46c2 0 3.6-1.6 3.6-3.6s-1.6-3.6-3.6-3.6zm-59 9.9c-3.5 0-6.3-2.8-6.3-6.3s2.8-6.3 6.3-6.3 6.3 2.8 6.3 6.3-2.8 6.3-6.3 6.3zm59 19h-8.3c-1.6-5.8-6.9-9.8-12.9-9.9-6 0-11.3 4.1-13 9.9H10.1c-2 0-3.6 1.6-3.6 3.6s1.6 3.6 3.6 3.6h45.6c1.7 5.8 7 9.8 13 9.9 6 0 11.3-4.1 12.9-9.9h8.3c2 0 3.6-1.6 3.6-3.6s-1.6-3.6-3.6-3.6zm-21.2 9.9c-3.5.1-6.3-2.7-6.4-6.1-.1-3.5 2.7-6.3 6.1-6.4 3.5-.1 6.3 2.7 6.4 6.1v.1c.1 3.4-2.7 6.2-6.1 6.3zm21.2 19H53.7C51.5 68 43.9 64 36.8 66.2c-4.3 1.3-7.6 4.6-8.9 8.9H10.1c-2 0-3.6 1.6-3.6 3.6s1.6 3.6 3.6 3.6h17.7c1.7 7.2 8.9 11.6 16.1 9.9 4.9-1.2 8.8-5 9.9-9.9h36.1c2 0 3.6-1.6 3.6-3.6s-1.6-3.6-3.6-3.6zM40.8 85.3c-3.5 0-6.3-2.8-6.3-6.3s2.8-6.3 6.3-6.3 6.3 2.8 6.3 6.3c-.1 3.5-2.9 6.3-6.3 6.3z"/>
</svg>
