<svg xmlns="http://www.w3.org/2000/svg" xml:space="preserve" viewBox="0 0 100 100">
  <path fill="#006838" d="M24.9 3.3c-.5 0-.9.4-.9.9v19.3h51.9V4.2c0-.5-.4-.9-.9-.9H24.9zm-16 25.4c-2.2 0-3.9 1.8-3.9 3.9v37.9c0 2.2 1.8 3.9 3.9 3.9h9.9V51.6c0-1.4 1.2-2.6 2.6-2.6h57.1c1.4 0 2.6 1.1 2.6 2.6v22.9H91c2.2 0 3.9-1.8 3.9-3.9v-38c0-2.2-1.8-3.9-3.9-3.9H8.9zm6.2 7.5c.7 0 1.4.2 1.9.7.5.5.8 1.2.8 1.8 0 .7-.3 1.4-.8 1.8-.5.5-1.2.8-1.8.8-.7 0-1.4-.3-1.8-.8-.5-.5-.8-1.2-.8-1.8 0-.7.3-1.4.8-1.8.3-.5 1-.7 1.7-.7zm8.9 18v29.7l8.6-8.6c1-1 2.7-1 3.7 0l9 9 16.8-16.8c1-1 2.7-1 3.7 0L76 77.7V54.2H24zm21.3 4c4.1 0 7.4 3.3 7.4 7.4S49.4 73 45.3 73s-7.4-3.3-7.4-7.4 3.3-7.4 7.4-7.4zm0 5.2c-1.2 0-2.2 1-2.2 2.2 0 1.2 1 2.2 2.2 2.2 1.2 0 2.2-1 2.2-2.2 0-1.2-1-2.2-2.2-2.2zM63.9 73 47.1 89.9c-1 1-2.7 1-3.7 0l-9-9L24 91.3v4.5c0 .5.4.9.9.9h50.2c.5 0 .9-.4.9-.9V85.1L63.9 73z"/>
</svg>
