<svg xmlns="http://www.w3.org/2000/svg" xml:space="preserve" viewBox="0 0 16.5 16.5">
  <path fill="#006837" d="M2.243 2.74c-.7 0-1.4.6-1.4 1.4v8.7c0 .7.6 1.4 1.4 1.4h8.7c.7 0 1.3-.5 1.4-1.2v-1.8c0-.3-.5-.3-.5 0v1.3l-2.3-1.5c-.1-.1-.2-.1-.3 0l-2.6 1.5-2.6-2.6s-.1-.1-.2-.1-.1 0-.2.1l-2.3 2.1v-7.8c0-.5.4-.9.9-.9h8.7c.5 0 .9.4.9.9v.3c0 .3.5.3.5 0v-.3c0-.7-.6-1.4-1.4-1.4l-8.7-.1zm8.3 2.2c-.4 0-.5.2-.5.5v4.8c0 .1.1.3.3.3h5.1c.1 0 .3-.1.3-.3v-5.1c0-.1-.1-.3-.3-.3-1.7.1-3.3.1-4.9.1zm1 .5h2.6v1.2h-2.6v-1.2zm-5.2.6c-1 0-1.9.8-1.9 1.9s.8 1.9 1.9 1.9c1 0 1.9-.8 1.9-1.9s-.9-1.9-1.9-1.9zm5.7 3.3h1.5v.7h-1.5v-.7z"/>
</svg>
